<svg xmlns:dc="http://purl.org/dc/elements/1.1/" xmlns:cc="http://creativecommons.org/ns#" xmlns:rdf="http://www.w3.org/1999/02/22-rdf-syntax-ns#" xmlns:svg="http://www.w3.org/2000/svg" xmlns="http://www.w3.org/2000/svg" xmlns:sodipodi="http://sodipodi.sourceforge.net/DTD/sodipodi-0.dtd" xmlns:inkscape="http://www.inkscape.org/namespaces/inkscape" viewBox="0 0 16.933332 21.1666675" version="1.1" x="0px" y="0px"><g><path style="color:#000000;font-style:normal;font-variant:normal;font-weight:normal;font-stretch:normal;font-size:medium;line-height:normal;font-family:sans-serif;font-variant-ligatures:normal;font-variant-position:normal;font-variant-caps:normal;font-variant-numeric:normal;font-variant-alternates:normal;font-variant-east-asian:normal;font-feature-settings:normal;font-variation-settings:normal;text-indent:0;text-align:start;text-decoration:none;text-decoration-line:none;text-decoration-style:solid;text-decoration-color:#000000;letter-spacing:normal;word-spacing:normal;text-transform:none;writing-mode:lr-tb;direction:ltr;text-orientation:mixed;dominant-baseline:auto;baseline-shift:baseline;text-anchor:start;white-space:normal;shape-padding:0;shape-margin:0;inline-size:0;clip-rule:nonzero;display:inline;overflow:visible;visibility:visible;opacity:1;isolation:auto;mix-blend-mode:normal;color-interpolation:sRGB;color-interpolation-filters:linearRGB;solid-color:#000000;solid-opacity:1;vector-effect:none;fill:#000000;fill-opacity:1;fill-rule:nonzero;stroke:none;stroke-width:5.29168;stroke-linecap:round;stroke-linejoin:round;stroke-miterlimit:4;stroke-dasharray:none;stroke-dashoffset:0;stroke-opacity:1;paint-order:stroke fill markers;color-rendering:auto;image-rendering:auto;shape-rendering:auto;text-rendering:auto;enable-background:accumulate;stop-color:#000000;stop-opacity:1" d="M 8.4702465,1.9291909e-5 A 0.36083608,0.36083294 0 0 0 8.2113977,0.10551056 L 5.9429476,2.3741603 H 2.7349273 A 0.36083608,0.36083294 0 0 0 2.3740639,2.7348159 V 5.9430881 L 0.10566851,8.2114554 a 0.36083608,0.36083294 0 0 0 0,0.5102595 L 2.3740639,10.990436 v 3.207988 a 0.36083608,0.36083294 0 0 0 0.3608634,0.360585 h 3.2080203 l 2.2684501,2.268651 a 0.36083608,0.36083294 0 0 0 0.5102776,0 l 2.2686407,-2.268651 h 3.208076 a 0.36083608,0.36083294 0 0 0 0.360875,-0.360585 v -3.207988 l 2.268397,-2.2687211 a 0.36083608,0.36083294 0 0 0 0,-0.5102595 L 14.559267,5.9430881 V 2.7348159 A 0.36083608,0.36083294 0 0 0 14.198392,2.3741603 H 10.990316 L 8.7216753,0.10551056 A 0.36083608,0.36083294 0 0 0 8.4702465,1.9291909e-5 Z M 8.4664215,0.87093585 10.585729,2.989911 a 0.36083608,0.36083294 0 0 0 0.254867,0.1057721 h 2.997075 v 2.9967971 a 0.36083608,0.36083294 0 0 0 0.105505,0.2551644 l 2.118994,2.1189767 -2.118994,2.1191867 a 0.36083608,0.36083294 0 0 0 -0.105505,0.254882 v 2.996868 h -2.996789 a 0.36083608,0.36083294 0 0 0 -0.255155,0.105701 L 8.4664215,16.062236 6.3475233,13.943259 A 0.36083608,0.36083294 0 0 0 6.0923293,13.837558 H 3.0954634 V 10.84069 A 0.36083608,0.36083294 0 0 0 2.9900394,10.585808 L 0.87077307,8.4666213 2.9900394,6.3476446 A 0.36083608,0.36083294 0 0 0 3.0954634,6.0924802 V 3.0956831 H 6.0923356 A 0.36083608,0.36083294 0 0 0 6.3475296,2.989911 Z M 8.0931765,5.9039773 A 0.35959408,0.362007 0 0 0 7.7336353,6.2659013 V 9.613982 a 0.35959408,0.362007 0 0 0 0.00136,0.021352 0.35959408,0.362007 0 0 0 -0.00136,0.02107 c 0,0.360226 -0.2809121,0.645475 -0.6387209,0.648943 -0.351891,0.0034 -0.6338531,-0.267289 -0.6496579,-0.6187823 V 7.4881001 a 0.3608,0.36079685 0 0 0 -0.1097877,-0.2591805 0.35959408,0.362007 0 0 0 -0.00218,-0.00204 0.3608,0.36079685 0 0 0 -0.00382,-0.00367 0.35959408,0.362007 0 0 0 -0.2452391,-0.097387 c -0.8764877,4e-6 -1.6125874,0.6908653 -1.6212878,1.5596698 -0.00805,0.8057588 0.6131392,1.4699496 1.4023941,1.5751036 0.2255346,0.458463 0.6979994,0.773816 1.236383,0.768596 0.3911777,-0.0038 0.7442272,-0.176184 0.991375,-0.447543 0.253135,0.277793 0.6170813,0.45142 1.0175576,0.447543 0.74401,-0.0072 1.3509424,-0.623743 1.3509424,-1.3727902 a 0.35959408,0.362007 0 0 0 -0.0014,-0.021352 0.35959408,0.362007 0 0 0 0.0014,-0.02107 V 6.2658961 A 0.35959408,0.362007 0 0 0 10.101766,5.9039718 0.35959408,0.362007 0 0 0 9.7422666,6.2658961 v 3.3480801 a 0.35959408,0.362007 0 0 0 0.00136,0.021352 0.35959408,0.362007 0 0 0 -0.00136,0.02107 c 0,0.3602248 -0.2806675,0.6454758 -0.6384625,0.6489418 -0.3577676,0.0035 -0.6439576,-0.27631 -0.6508576,-0.6364689 a 0.35959408,0.362007 0 0 0 0,-0.010433 v -0.00204 a 0.35959408,0.362007 0 0 0 -0.00136,-0.021492 0.35959408,0.362007 0 0 0 0.00136,-0.020929 V 6.2658918 A 0.35959408,0.362007 0 0 0 8.093419,5.9039681 Z M 12.110715,6.0062967 A 0.35959408,0.362007 0 0 0 11.751188,6.3682916 V 10.56495 a 0.35959408,0.362007 0 0 0 0.359527,0.361924 0.35959408,0.362007 0 0 0 0.359541,-0.361924 V 6.3682916 A 0.35959408,0.362007 0 0 0 12.110715,6.0062967 Z M 5.7234539,7.9194356 V 9.48129 C 5.3969273,9.3486868 5.1785792,9.0421363 5.1820429,8.6926122 5.1854516,8.3487115 5.4028458,8.0496267 5.7234539,7.9194356 Z"/></g><text x="0" y="31.933334" fill="#000000" font-size="5px" font-weight="bold" font-family="'Helvetica Neue', Helvetica, Arial-Unicode, Arial, Sans-serif">Created by Muhammad Naufal Subhiansyah</text><text x="0" y="36.933334" fill="#000000" font-size="5px" font-weight="bold" font-family="'Helvetica Neue', Helvetica, Arial-Unicode, Arial, Sans-serif">from the Noun Project</text></svg>