<svg width="29" height="28" viewBox="0 0 29 28" fill="none" xmlns="http://www.w3.org/2000/svg">
<g clip-path="url(#clip0_1102_1690)">
<path d="M21.8361 22.8064V21.8248C21.8361 20.2613 20.9648 18.8556 19.5627 18.1562L16.9009 16.829V11.8714C16.9009 10.5645 16.2917 9.36778 15.2723 8.60171C15.3255 8.31291 15.5026 8.06999 15.7329 7.99359C17.4158 7.43512 18.5459 5.871 18.5459 4.10131C18.5459 1.56627 16.2748 -0.354187 13.7484 0.0555321C11.7947 0.372063 10.3206 2.18725 10.3206 4.27692V7.04957C8.27056 9.2129 7.0306 12.144 7.0306 15.3041V19.9374C7.0306 21.1653 7.37397 22.3405 8.01487 23.3543C6.47793 23.9489 5.38559 25.4397 5.38559 27.1799V28.0002H21.0134C22.374 28.0002 23.4812 26.896 23.4812 25.5393C23.4817 24.9777 23.3288 24.4266 23.039 23.9451C22.7492 23.4636 22.3334 23.0699 21.8361 22.8064ZM18.9863 19.7105C19.7337 20.153 20.1909 20.9476 20.1909 21.8248V22.2136L18.3277 21.594L18.9863 19.7105ZM11.9659 4.27692C11.9659 2.98301 12.8458 1.86405 14.0127 1.67477C15.5911 1.41845 16.9009 2.62989 16.9009 4.10131C16.9015 4.61811 16.7388 5.12195 16.4359 5.54126C16.133 5.96057 15.7054 6.27402 15.2137 6.43707C14.5644 6.65243 14.0598 7.15403 13.8017 7.79124L11.9659 6.87567V4.27692ZM8.67561 15.3041C8.67561 12.7274 9.61124 10.2936 11.3216 8.38898L13.8917 9.67031C14.7333 10.0896 15.2559 10.9336 15.2559 11.8715V17.8428L17.5047 18.9646L16.767 21.0756L13.6108 20.026V12.3047H11.9658V21.2085L14.4573 22.0369C13.3603 23.2516 11.6235 23.7405 10.0043 23.2025L9.9522 23.185C9.12799 22.2983 8.67561 21.1531 8.67561 19.9373V15.3041ZM21.0134 26.3596H7.17152C7.49779 25.4414 8.35604 24.7725 9.37474 24.7222C9.44778 24.7405 10.2193 25.0607 11.344 25.0607C13.2197 25.0607 15.0113 24.1573 16.1168 22.5883L20.838 24.1577C21.1288 24.2542 21.3818 24.4396 21.561 24.6876C21.7402 24.9356 21.8365 25.2336 21.8362 25.5393C21.8362 25.9915 21.4672 26.3596 21.0135 26.3596H21.0134Z" fill="white"/>
</g>
<defs>
<clipPath id="clip0_1102_1690">
<rect width="28.0749" height="28" fill="white" transform="translate(0.395721)"/>
</clipPath>
</defs>
</svg>
